<?xml version="1.0" encoding="UTF-8" standalone="no"?>
<svg
   width="257.90494"
   height="92.338615"
   viewBox="0 0 231.92328 83.036353"
   class="looka-1j8o68f"
   version="1.1"
   id="svg5"
   sodipodi:docname="banner.svg"
   inkscape:version="1.3.1 (9b9bdc1480, 2023-11-25, custom)"
   xmlns:inkscape="http://www.inkscape.org/namespaces/inkscape"
   xmlns:sodipodi="http://sodipodi.sourceforge.net/DTD/sodipodi-0.dtd"
   xmlns:xlink="http://www.w3.org/1999/xlink"
   xmlns="http://www.w3.org/2000/svg"
   xmlns:svg="http://www.w3.org/2000/svg">
  <sodipodi:namedview
     id="namedview5"
     pagecolor="#ffffff"
     bordercolor="#000000"
     borderopacity="0.25"
     inkscape:showpageshadow="2"
     inkscape:pageopacity="0.0"
     inkscape:pagecheckerboard="0"
     inkscape:deskcolor="#d1d1d1"
     inkscape:zoom="3.0323572"
     inkscape:cx="122.67684"
     inkscape:cy="45.838927"
     inkscape:window-width="1874"
     inkscape:window-height="1016"
     inkscape:window-x="0"
     inkscape:window-y="0"
     inkscape:window-maximized="1"
     inkscape:current-layer="svg5" />
  <defs
     id="SvgjsDefs3031">
    <linearGradient
       id="linearGradient1"
       inkscape:collect="always">
      <stop
         style="stop-color:#111111;stop-opacity:1;"
         offset="0"
         id="stop1" />
      <stop
         style="stop-color:#2a2a2a;stop-opacity:1;"
         offset="0.91607994"
         id="stop2" />
    </linearGradient>
    <linearGradient
       inkscape:collect="always"
       xlink:href="#linearGradient1"
       id="linearGradient2"
       x1="76.897316"
       y1="83.048157"
       x2="281.00092"
       y2="33.247791"
       gradientUnits="userSpaceOnUse"
       gradientTransform="matrix(1.0203986,0,0,1.39405,-64.330381,-42.520993)" />
  </defs>
  <rect
     style="fill:url(#linearGradient2);fill-opacity:1;stroke-width:0"
     id="rect1"
     width="231.92334"
     height="83.036331"
     x="0"
     y="0"
     ry="0" />
  <g
     id="SvgjsG3033"
     featurekey="0yvIkK-0"
     transform="matrix(1.1417784,0,0,1.1417784,80.013592,24.696562)"
     fill="#51dacf">
    <g
       id="g2">
      <g
         id="SvgjsG3032"
         featurekey="G09qjj-0"
         transform="matrix(0.27064896,0,0,0.27064896,-29.320484,1.2236367)"
         fill="#51dacf">
        <g
           id="g5">
          <g
             id="g4">
            <path
               fill="#51dacf"
               d="m 71.15,55.636 c 8.644,-9.455 13.473,-18.541 16.13,-26.462 0,0.024 0,0.024 0.008,0.04 0,0 1.069,-2.789 1.908,-7.179 0.062,-0.292 0.104,-0.559 0.159,-0.854 0.063,-0.368 0.128,-0.747 0.184,-1.133 1.029,-6.393 0.687,-11.445 0.239,-14.422 0.143,-0.135 0.295,-0.303 0.438,-0.495 0.527,-0.663 0.752,-1.349 0.52,-1.532 L 90.456,3.387 91,1 88.413,1.818 88.07,1.562 c -0.239,-0.175 -0.846,0.224 -1.364,0.886 -0.104,0.143 -0.2,0.28 -0.28,0.415 0,0 -9.473,0.295 -20.432,7.255 h 0.017 C 50.687,19.568 43.44,34.428 43.44,34.428 15.801,30.718 9.64,56.449 9.64,56.449 63.513,53.289 56.369,93.992 56.369,93.992 79.945,83.649 71.15,55.636 71.15,55.636 Z M 69.371,41.524 c -2.443,2.69 -6.561,3.396 -9.889,1.477 -3.815,-2.195 -5.148,-6.991 -2.978,-10.71 0.264,-0.463 0.575,-0.874 0.918,-1.253 2.434,-2.69 6.552,-3.393 9.888,-1.477 3.808,2.187 5.149,6.987 2.979,10.711 -0.272,0.462 -0.584,0.877 -0.918,1.252 z"
               id="path1" />
            <path
               fill="#51dacf"
               d="M 30.949,97.333 C 44.245,92.504 49.082,74.949 49.082,74.949 34.956,81.278 30.949,97.333 30.949,97.333 Z"
               id="path2" />
            <path
               fill="#51dacf"
               d="m 16.806,98.828 c 17.623,-6.504 23.952,-30.4 23.952,-30.4 -18.707,8.532 -23.952,30.4 -23.952,30.4 z"
               id="path3" />
            <path
               fill="#51dacf"
               d="M 14.292,84.28 C 27.589,79.459 32.426,61.908 32.426,61.908 18.307,68.226 14.292,84.28 14.292,84.28 Z"
               id="path4" />
          </g>
        </g>
      </g>
      <path
         d="m 1.6,4.88 h 1.2 v 7.5 h 0.04 q 0.4,-0.86 1.27,-1.36 0.87,-0.5 1.89,-0.5 3.52,0 3.52,3.9 V 20 H 8.32 V 14.54 Q 8.32,11.6 6,11.6 4.5,11.6 3.65,12.63 2.8,13.66 2.8,15.34 V 20 H 1.6 Z m 11.16,5.88 3.06,7.78 2.98,-7.78 h 1.28 l -4.74,12.06 q -0.78,1.98 -2.56,1.98 -0.56,0 -1.18,-0.18 l 0.12,-1.12 q 0.66,0.22 1.08,0.22 0.46,0 0.82,-0.32 0.36,-0.32 0.7,-1.16 l 0.86,-2.2 -3.76,-9.28 z m 10.04,4.62 q 0,1.58 1.12,2.66 1.12,1.08 2.74,1.12 1.62,0 2.63,-1.07 1.01,-1.07 1.03,-2.71 0,-1.6 -1,-2.68 -1,-1.08 -2.68,-1.1 -1.62,0 -2.72,1.1 -1.1,1.1 -1.12,2.68 z m 3.86,-4.86 q 2.12,0 3.48,1.37 1.36,1.37 1.38,3.49 0,2.12 -1.36,3.48 -1.36,1.36 -3.5,1.38 -1.18,0 -2.19,-0.5 -1.01,-0.5 -1.51,-1.36 h -0.04 v 6.18 h -1.2 v -13.8 h 1.2 v 1.62 h 0.04 q 0.48,-0.84 1.5,-1.35 1.02,-0.51 2.2,-0.51 z m 14.78,4.08 q 0,-1.26 -0.94,-2.13 -0.94,-0.87 -2.28,-0.87 -1.3,0 -2.24,0.87 -0.94,0.87 -1.1,2.13 z M 38.3,10.52 q 1.92,0 3.12,1.24 1.2,1.24 1.22,3.2 v 0.72 h -7.76 q 0.08,1.56 1.03,2.51 0.95,0.95 2.47,0.97 0.94,0 1.79,-0.45 0.85,-0.45 1.31,-1.19 l 0.88,0.74 q -1.3,1.98 -4,1.98 -2.12,-0.02 -3.39,-1.38 -1.27,-1.36 -1.29,-3.5 0,-2.08 1.31,-3.45 1.31,-1.37 3.31,-1.39 z m 11.14,0 q 0.34,0 0.7,0.1 L 50,11.8 q -0.22,-0.08 -0.48,-0.08 -1.46,0 -2.23,0.9 -0.77,0.9 -0.77,2.34 V 20 h -1.2 v -6.74 q 0,-0.2 -0.1,-2.5 h 1.2 q 0.04,1.38 0.08,1.62 1.04,-1.86 2.94,-1.86 z m 5.98,-5.88 q 0.84,0 1.38,0.24 l -0.24,1.04 q -0.4,-0.2 -1.08,-0.2 -1.62,0 -1.62,2.38 v 2.66 h 2.16 v 1.08 H 53.86 V 20 h -1.2 v -8.16 h -1.92 v -1.08 h 1.92 v -3.1 q 0,-1.36 0.76,-2.18 0.76,-0.82 2,-0.84 z m 2.68,0.24 h 1.2 V 20 h -1.2 z m 5.38,12.56 q 0,0.76 0.61,1.24 0.61,0.48 1.51,0.48 1.62,0 2.41,-0.85 Q 68.8,17.46 68.8,16 v -0.64 h -1.44 q -1.84,0 -2.86,0.56 -1.02,0.56 -1.02,1.52 z m 2.72,-6.92 q 1.86,0 2.76,0.86 0.9,0.86 0.92,2.4 v 2.74 q 0,2.24 0.18,3.48 h -1.12 q -0.12,-0.62 -0.12,-1.5 h -0.04 q -1,1.74 -3.22,1.74 -1.5,0 -2.38,-0.74 -0.88,-0.74 -0.9,-2 0,-1.54 1.33,-2.32 1.33,-0.78 3.71,-0.78 h 1.48 v -0.54 q 0,-1.14 -0.7,-1.7 -0.7,-0.56 -1.9,-0.56 -1.6,0 -2.82,1.04 l -0.7,-0.82 q 0.66,-0.64 1.63,-0.97 0.97,-0.33 1.89,-0.33 z m 9.4,0 q 2.34,0 3.24,1.74 l -1.08,0.64 q -0.68,-1.3 -2.16,-1.3 -0.8,0 -1.39,0.43 -0.59,0.43 -0.59,1.05 0,0.62 0.5,0.99 0.5,0.37 1.74,0.59 1.84,0.32 2.54,0.95 0.7,0.63 0.7,1.77 0,1.3 -0.93,2.08 -0.93,0.78 -2.43,0.78 -2.64,-0.02 -3.7,-1.88 l 1.06,-0.72 q 0.34,0.7 1.11,1.11 0.77,0.41 1.57,0.41 0.92,0 1.52,-0.51 0.6,-0.51 0.6,-1.19 0,-0.62 -0.49,-1.02 -0.49,-0.4 -2.13,-0.72 -1.42,-0.28 -2.14,-0.86 -0.72,-0.58 -0.72,-1.68 0,-1.18 0.9,-1.92 0.9,-0.74 2.28,-0.74 z m 6,-5.64 h 1.2 v 10.08 l 4.58,-4.2 h 1.76 L 84.36,15 89.68,20 H 87.86 L 82.8,15.12 V 20 h -1.2 z"
         id="path5" />
    </g>
  </g>
</svg>
