<?xml version="1.0" encoding="UTF-8" standalone="no"?>
<svg
   width="411.45000000000005"
   height="93.59779708609705"
   viewBox="0 0 370.00000000000006 84.16863512420929"
   class="looka-1j8o68f"
   version="1.1"
   id="svg5"
   sodipodi:docname="logo-green.svg"
   inkscape:version="1.3.1 (9b9bdc1480, 2023-11-25, custom)"
   xmlns:inkscape="http://www.inkscape.org/namespaces/inkscape"
   xmlns:sodipodi="http://sodipodi.sourceforge.net/DTD/sodipodi-0.dtd"
   xmlns="http://www.w3.org/2000/svg"
   xmlns:svg="http://www.w3.org/2000/svg">
  <sodipodi:namedview
     id="namedview5"
     pagecolor="#ffffff"
     bordercolor="#000000"
     borderopacity="0.25"
     inkscape:showpageshadow="2"
     inkscape:pageopacity="0.0"
     inkscape:pagecheckerboard="0"
     inkscape:deskcolor="#d1d1d1"
     inkscape:zoom="2.6661805"
     inkscape:cx="205.53747"
     inkscape:cy="46.883547"
     inkscape:window-width="1874"
     inkscape:window-height="1016"
     inkscape:window-x="0"
     inkscape:window-y="0"
     inkscape:window-maximized="1"
     inkscape:current-layer="svg5" />
  <defs
     id="SvgjsDefs3031" />
  <g
     id="SvgjsG3032"
     featurekey="G09qjj-0"
     transform="matrix(0.8603736162185669,0,0,0.8603736162185669,-8.294004661282456,-0.8603736415298625)"
     fill="#51dacf">
    <g
       id="g5">
      <g
         id="g4">
        <path
           fill="#51dacf"
           d="M71.15,55.636c8.644-9.455,13.473-18.541,16.13-26.462c0,0.024,0,0.024,0.008,0.04    c0,0,1.069-2.789,1.908-7.179c0.062-0.292,0.104-0.559,0.159-0.854c0.063-0.368,0.128-0.747,0.184-1.133    c1.029-6.393,0.687-11.445,0.239-14.422c0.143-0.135,0.295-0.303,0.438-0.495c0.527-0.663,0.752-1.349,0.52-1.532l-0.28-0.212    L91,1l-2.587,0.818L88.07,1.562c-0.239-0.175-0.846,0.224-1.364,0.886c-0.104,0.143-0.2,0.28-0.28,0.415    c0,0-9.473,0.295-20.432,7.255h0.017c-15.324,9.45-22.571,24.31-22.571,24.31c-27.639-3.71-33.8,22.021-33.8,22.021    c53.873-3.16,46.729,37.543,46.729,37.543C79.945,83.649,71.15,55.636,71.15,55.636z M69.371,41.524    c-2.443,2.69-6.561,3.396-9.889,1.477c-3.815-2.195-5.148-6.991-2.978-10.71c0.264-0.463,0.575-0.874,0.918-1.253    c2.434-2.69,6.552-3.393,9.888-1.477c3.808,2.187,5.149,6.987,2.979,10.711C70.017,40.734,69.705,41.149,69.371,41.524z"
           id="path1" />
        <path
           fill="#51dacf"
           d="M30.949,97.333c13.296-4.829,18.133-22.384,18.133-22.384C34.956,81.278,30.949,97.333,30.949,97.333z"
           id="path2" />
        <path
           fill="#51dacf"
           d="M16.806,98.828c17.623-6.504,23.952-30.4,23.952-30.4C22.051,76.96,16.806,98.828,16.806,98.828z"
           id="path3" />
        <path
           fill="#51dacf"
           d="M14.292,84.28c13.297-4.821,18.134-22.372,18.134-22.372C18.307,68.226,14.292,84.28,14.292,84.28z"
           id="path4" />
      </g>
    </g>
  </g>
  <g
     id="SvgjsG3033"
     featurekey="0yvIkK-0"
     transform="matrix(3.1789281368255615,0,0,3.1789281368255615,84.91371483466787,-4.7502263352349665)"
     fill="#51dacf">
    <path
       d="M1.6 4.880000000000001 l1.2 0 l0 7.5 l0.04 0 q0.4 -0.86 1.27 -1.36 t1.89 -0.5 q3.52 0 3.52 3.9 l0 5.58 l-1.2 0 l0 -5.46 q0 -2.94 -2.32 -2.94 q-1.5 0 -2.35 1.03 t-0.85 2.71 l0 4.66 l-1.2 0 l0 -15.12 z M12.760000000000002 10.76 l3.06 7.78 l2.98 -7.78 l1.28 0 l-4.74 12.06 q-0.78 1.98 -2.56 1.98 q-0.56 0 -1.18 -0.18 l0.12 -1.12 q0.66 0.22 1.08 0.22 q0.46 0 0.82 -0.32 t0.7 -1.16 l0.86 -2.2 l-3.76 -9.28 l1.34 0 z M22.800000000000004 15.379999999999999 q0 1.58 1.12 2.66 t2.74 1.12 q1.62 0 2.63 -1.07 t1.03 -2.71 q0 -1.6 -1 -2.68 t-2.68 -1.1 q-1.62 0 -2.72 1.1 t-1.12 2.68 z M26.660000000000004 10.52 q2.12 0 3.48 1.37 t1.38 3.49 q0 2.12 -1.36 3.48 t-3.5 1.38 q-1.18 0 -2.19 -0.5 t-1.51 -1.36 l-0.04 0 l0 6.18 l-1.2 0 l0 -13.8 l1.2 0 l0 1.62 l0.04 0 q0.48 -0.84 1.5 -1.35 t2.2 -0.51 z M41.44 14.6 q0 -1.26 -0.94 -2.13 t-2.28 -0.87 q-1.3 0 -2.24 0.87 t-1.1 2.13 l6.56 0 z M38.300000000000004 10.52 q1.92 0 3.12 1.24 t1.22 3.2 l0 0.72 l-7.76 0 q0.08 1.56 1.03 2.51 t2.47 0.97 q0.94 0 1.79 -0.45 t1.31 -1.19 l0.88 0.74 q-1.3 1.98 -4 1.98 q-2.12 -0.02 -3.39 -1.38 t-1.29 -3.5 q0 -2.08 1.31 -3.45 t3.31 -1.39 z M49.44 10.52 q0.34 0 0.7 0.1 l-0.14 1.18 q-0.22 -0.08 -0.48 -0.08 q-1.46 0 -2.23 0.9 t-0.77 2.34 l0 5.04 l-1.2 0 l0 -6.74 q0 -0.2 -0.1 -2.5 l1.2 0 q0.04 1.38 0.08 1.62 q1.04 -1.86 2.94 -1.86 z M55.419999999999995 4.640000000000001 q0.84 0 1.38 0.24 l-0.24 1.04 q-0.4 -0.2 -1.08 -0.2 q-1.62 0 -1.62 2.38 l0 2.66 l2.16 0 l0 1.08 l-2.16 0 l0 8.16 l-1.2 0 l0 -8.16 l-1.92 0 l0 -1.08 l1.92 0 l0 -3.1 q0 -1.36 0.76 -2.18 t2 -0.84 z M58.099999999999994 4.880000000000001 l1.2 0 l0 15.12 l-1.2 0 l0 -15.12 z M63.48 17.44 q0 0.76 0.61 1.24 t1.51 0.48 q1.62 0 2.41 -0.85 t0.79 -2.31 l0 -0.64 l-1.44 0 q-1.84 0 -2.86 0.56 t-1.02 1.52 z M66.19999999999999 10.52 q1.86 0 2.76 0.86 t0.92 2.4 l0 2.74 q0 2.24 0.18 3.48 l-1.12 0 q-0.12 -0.62 -0.12 -1.5 l-0.04 0 q-1 1.74 -3.22 1.74 q-1.5 0 -2.38 -0.74 t-0.9 -2 q0 -1.54 1.33 -2.32 t3.71 -0.78 l1.48 0 l0 -0.54 q0 -1.14 -0.7 -1.7 t-1.9 -0.56 q-1.6 0 -2.82 1.04 l-0.7 -0.82 q0.66 -0.64 1.63 -0.97 t1.89 -0.33 z M75.6 10.52 q2.34 0 3.24 1.74 l-1.08 0.64 q-0.68 -1.3 -2.16 -1.3 q-0.8 0 -1.39 0.43 t-0.59 1.05 t0.5 0.99 t1.74 0.59 q1.84 0.32 2.54 0.95 t0.7 1.77 q0 1.3 -0.93 2.08 t-2.43 0.78 q-2.64 -0.02 -3.7 -1.88 l1.06 -0.72 q0.34 0.7 1.11 1.11 t1.57 0.41 q0.92 0 1.52 -0.51 t0.6 -1.19 q0 -0.62 -0.49 -1.02 t-2.13 -0.72 q-1.42 -0.28 -2.14 -0.86 t-0.72 -1.68 q0 -1.18 0.9 -1.92 t2.28 -0.74 z M81.59999999999998 4.880000000000001 l1.2 0 l0 10.08 l4.58 -4.2 l1.76 0 l-4.78 4.24 l5.32 5 l-1.82 0 l-5.06 -4.88 l0 4.88 l-1.2 0 l0 -15.12 z"
       id="path5" />
  </g>
</svg>
